<svg xmlns="http://www.w3.org/2000/svg" viewBox="0 0 48 48" width="100" height="100"><path d="M29.277 37.078C28.867 35.984 29 35 29 35s7.23 5.371 12.91-1.922c-.148.332-.316.66-.508.977.582-.953.957-2 1.121-3.02.22-1.32.145-2.59-.082-3.781a12.557 12.557 0 0 0-.457-1.734 13.397 13.397 0 0 0-.316-.86c-.09-.207-.242-.555-.387-.824-.562-1.063-1.203-1.906-1.683-2.727a7.178 7.178 0 0 1-.59-1.21 2.72 2.72 0 0 1-.196-1.149c.032-.824.391-1.645.95-2.54.27-.456.554-.944.77-1.503.167-.492.386-.977.503-1.602.172-1.23-.265-2.293-.691-3.253-.442-.97-.98-1.868-1.344-2.852.21 1.031.617 2.02.898 3.02.286.98.485 2.03.211 2.878-.132.395-.414.848-.664 1.313-.23.39-.535.77-.867 1.168-.68.781-1.437 1.82-1.695 3.094a4.826 4.826 0 0 0-.012 1.965c.113.617.3 1.195.512 1.73.422 1.07.91 2.004 1.191 2.86.512 1.656.606 3.675.086 5.109-.254.73-.648 1.308-1.144 1.738a4.405 4.405 0 0 1-1.782.914 3.917 3.917 0 0 1-3.484-.867 3.71 3.71 0 0 1-.98-1.387c-.254-.594-.297-1.062-.297-1.726.004-1.313.52-3.102.984-5.383l.027-.14a4.02 4.02 0 0 0-3.89-4.8 4.02 4.02 0 0 0-4.078 3.963c-.028 1.863-.446 4.23.004 7.121.222 1.414.8 2.996 1.628 4.203.88 1.332 2.352 2.227 3.305 3.141.07.066 0 0 .324.164z" fill="#673ab7"/><path d="M33 11c0 4.973-4.027 17-9 17s-9-12.027-9-17c0-4.973 4.027-9 9-9s9 4.027 9 9z" fill="#673ab7"/><path d="M24.395 25.563c-.07-1.083-.13-2.07-.172-3.102a4.013 4.013 0 1 0-7.957.875l.015.078c.375 2.102 1.004 4.453 1.047 5.535l.004.258v.008c.012-.063-.02.144.02-.133v.023l-.004.051-.004.102-.016.195c-.031.258.04.07.004.27-.023.23-.074.48-.18.73-.203.504-.582 1.04-1.082 1.485-.258.222-.496.425-.824.578-.07.062-.402.187-.695.242-.625.125-1.43.097-2.215-.055l-.293-.062-.14-.036-.075-.015-.015-.004c.035.012-.09-.035.074.027l-.059-.02-.34-.109c-.043-.015-.074-.011-.133-.035a2.515 2.515 0 0 1-.707-.41c-.433-.355-.832-.984-1.113-1.797-.57-1.465-.433-3.293.113-5.156l.098-.328.117-.336c.07-.195.168-.438.266-.66l.648-1.477c.43-1.027.868-2.316.606-3.691-.238-1.29-.969-2.348-1.664-3.145-.336-.402-.649-.781-.89-1.18-.235-.425-.536-.933-.684-1.316-.31-.848-.18-1.902.054-2.902C8.43 9.039 8.79 8.035 9 7c-.363.988-.863 1.91-1.262 2.906-.383.989-.746 2.082-.523 3.297.148.633.336 1.063.527 1.598.223.547.512 1.035.781 1.488.551.883.891 1.723.907 2.54.015.741-.348 1.523-.86 2.343l-.847 1.305c-.153.238-.293.468-.45.75l-.207.382-.195.403c-.488 1.031-.906 2.136-1.152 3.347a10.564 10.564 0 0 0-.219 1.887 9.54 9.54 0 0 0 .04 1.035l.038.407.082.511c.125.696.336 1.442.66 2.184a7.392 7.392 0 0 1-.113-.258C11.871 40.227 19.141 35 19.141 35s.082 1.047-.317 2.125c.168-.086.344-.16.504-.254a10.436 10.436 0 0 0 3.324-2.965 9.3 9.3 0 0 0 1.149-2.12c.137-.298.312-1 .379-1.259l.05-.191.024-.098.012-.047.007-.023.024-.172.078-.527c.094-.715.117-1.473.102-2.125-.012-.66-.051-1.235-.082-1.782z" fill="#673ab7"/><path d="M30.395 29.008c-.094.215-.23.562-.266.62a2.114 2.114 0 0 0-.195.458 9.413 9.413 0 0 0-.34 1.184 17.283 17.283 0 0 0-.375 2.668 20.767 20.767 0 0 0-.004 2.789l.012.171.003.02v.008l-.015-.055v.012l.008.05.011.098.047.383c.024.172.028.34.074.547.075.398.176.797.325 1.176.554 1.539 1.773 2.925 3.468 3.812 1.688.899 3.754 1.305 5.852 1.223-1.969.726-4.188 1.058-6.465.683-2.262-.359-4.605-1.57-6.238-3.585a10.97 10.97 0 0 1-1.102-1.59c-.16-.27-.316-.59-.468-.91l-.172-.364-.043-.09-.02-.043-.004-.011-.023-.075-.012-.023-.082-.207a26.308 26.308 0 0 1-1.113-3.336 24.3 24.3 0 0 1-.66-3.55 17.994 17.994 0 0 1-.106-1.923c0-.324.004-.668.047-1.082l.07-.902.004-.062a4.055 4.055 0 0 1 4.367-3.723 4.051 4.051 0 0 1 3.723 4.363 4.263 4.263 0 0 1-.308 1.266z" fill="#673ab7"/><path d="M25.477 27.16l.074.902c.039.415.043.758.043 1.083 0 .664-.04 1.3-.106 1.921a23.79 23.79 0 0 1-.66 3.551 26.26 26.26 0 0 1-1.113 3.336l-.082.207-.012.024-.02.074-.007.012-.02.042-.043.09-.172.364c-.152.32-.308.644-.468.91-.32.562-.684 1.097-1.098 1.594-1.637 2.011-3.98 3.222-6.238 3.582-2.282.378-4.5.046-6.47-.684 2.099.082 4.169-.324 5.852-1.219 1.696-.89 2.918-2.273 3.47-3.812.148-.383.25-.778.323-1.176.047-.211.055-.379.075-.55l.05-.384.012-.097.004-.051.004-.012-.016.055v-.027l.012-.172c.063-.922.059-1.868-.004-2.79a17.283 17.283 0 0 0-.375-2.667 9.413 9.413 0 0 0-.34-1.184 2.36 2.36 0 0 0-.191-.457c-.043-.059-.176-.406-.266-.621a4.053 4.053 0 0 1 2.145-5.32 4.053 4.053 0 0 1 5.32 2.144c.176.41.277.828.313 1.25z" fill="#673ab7"/><path d="M33 18.5c0 3.5-6.617 9.5-8 9.5h-2c-1.383 0-8-6-8-9.5 0-1.383 1.117-2.5 2.5-2.5h13c1.383 0 2.5 1.117 2.5 2.5z" fill="#673ab7"/><path d="M27 6a1.999 1.999 0 1 1-4 0 1.999 1.999 0 1 1 4 0zm-5 0c0 .55-.45 1-1 1s-1-.45-1-1 .45-1 1-1 1 .45 1 1zm9 2.5a1.5 1.5 0 1 1-3 0 1.5 1.5 0 0 1 3 0zm0 3.5c0 .55-.45 1-1 1s-1-.45-1-1 .45-1 1-1 1 .45 1 1z" fill="#7e57c2"/><path d="M24 10c0 .55-.45 1-1 1s-1-.45-1-1 .45-1 1-1 1 .45 1 1zm-5-1.5c0 .277-.223.5-.5.5a.498.498 0 0 1-.5-.5.499.499 0 1 1 1 0zm8 2c0 .277-.223.5-.5.5a.498.498 0 0 1-.5-.5.499.499 0 1 1 1 0z" fill="#b39ddb"/><path d="M21.04 20.203c1.003-1-.813-.812-1.817-1.812-1-1.004-.813-2.82-1.813-1.817m9.106 3.629c-1.004-1 .808-.812 1.812-1.812 1.004-1.004.813-2.82 1.817-1.817" fill="#ffeb3b" stroke-width="2" stroke-linecap="round" stroke="#311b92"/><path d="M24 31s-1.8 12.766-8.79 13.895c.114-.012.227-.024.34-.043 2.262-.36 4.606-1.57 6.24-3.582a11.37 11.37 0 0 0 1.565-2.504l.176-.364.04-.09.023-.042.004-.012.023-.074.008-.024.086-.207c.12-.289.219-.586.324-.879.11.293.207.59.328.88l.086.206.008.024.023.074.004.012.024.042.039.09.176.364a11.225 11.225 0 0 0 1.566 2.504c1.613 1.988 3.922 3.19 6.156 3.566C25.74 43.422 24 31 24 31z" fill="#311b92"/><path d="M20.383 20.926c1.004-1.004-.813-.817-1.817-1.817-1-1.004-.812-2.82-1.812-1.816a2.567 2.567 0 0 0 3.629 3.633zm6.703-.012C26.027 19.855 27.94 20.06 29 19s.855-2.973 1.914-1.914a2.704 2.704 0 0 1 0 3.828 2.704 2.704 0 0 1-3.828 0z" fill="#ffeb3b"/><path d="M28.188 19.555c.18.261.468.445.812.445a1 1 0 0 0 1-1c0-.344-.184-.629-.445-.813A2.95 2.95 0 0 1 29 19a3.095 3.095 0 0 1-.813.555zm-8.805.101a2.992 2.992 0 0 1-.817-.547 2.944 2.944 0 0 1-.546-.812.983.983 0 0 0-.454.812c0 .551.45 1 1 1a.99.99 0 0 0 .817-.453z" fill="#263238"/><path d="M29.21 36.867s.005.004.005.008c-.004-.016-.008-.02-.004-.008zm-.03-1.746c-.008.54 0 1.074.035 1.606l.012.171v.02c.02.055.03.105.054.16 8.055 3.883 12.407-3.098 12.63-3.996-5.161 6.621-11.595 2.8-12.731 2.04zm-10.367 2.012c.003-.004.007-.004.011-.008.012-.023.016-.05.028-.074v-.024l.011-.097.008-.047v-.016c.016-.054-.02.07-.016.059v-.028l.012-.175c.035-.52.043-1.043.04-1.57-1.27.804-7.626 4.331-12.704-2.028 2.879 6.332 9.985 5.395 12.61 4.008z" fill="#ff80ab"/></svg>