<svg xmlns="http://www.w3.org/2000/svg" xmlns:xlink="http://www.w3.org/1999/xlink" viewBox="0 0 48 48" version="1.1" width="100" height="100">
<g id="surface1">
<path style=" fill:#673AB7;" d="M 29.277344 37.078125 C 28.867188 35.984375 29 35 29 35 C 29 35 36.230469 40.371094 41.910156 33.078125 C 41.761719 33.410156 41.59375 33.738281 41.402344 34.054688 C 41.984375 33.101563 42.359375 32.054688 42.523438 31.035156 C 42.742188 29.714844 42.667969 28.445313 42.441406 27.253906 C 42.328125 26.65625 42.175781 26.078125 41.984375 25.519531 C 41.886719 25.222656 41.800781 24.992188 41.667969 24.660156 C 41.578125 24.453125 41.425781 24.105469 41.28125 23.835938 C 40.71875 22.773438 40.078125 21.929688 39.597656 21.109375 C 39.355469 20.699219 39.152344 20.300781 39.007813 19.898438 C 38.859375 19.503906 38.792969 19.160156 38.8125 18.75 C 38.84375 17.925781 39.203125 17.105469 39.761719 16.210938 C 40.03125 15.753906 40.316406 15.265625 40.53125 14.707031 C 40.699219 14.214844 40.917969 13.730469 41.035156 13.105469 C 41.207031 11.875 40.769531 10.8125 40.34375 9.851563 C 39.902344 8.882813 39.363281 7.984375 39 7 C 39.210938 8.03125 39.617188 9.019531 39.898438 10.019531 C 40.183594 11 40.382813 12.050781 40.109375 12.898438 C 39.976563 13.292969 39.695313 13.746094 39.445313 14.210938 C 39.214844 14.601563 38.910156 14.980469 38.578125 15.378906 C 37.898438 16.160156 37.140625 17.199219 36.882813 18.472656 C 36.738281 19.097656 36.746094 19.820313 36.871094 20.4375 C 36.984375 21.054688 37.171875 21.632813 37.382813 22.167969 C 37.804688 23.238281 38.292969 24.171875 38.574219 25.027344 C 39.085938 26.683594 39.179688 28.703125 38.660156 30.136719 C 38.40625 30.867188 38.011719 31.445313 37.515625 31.875 C 37.007813 32.3125 36.367188 32.632813 35.734375 32.789063 C 34.464844 33.101563 33.136719 32.710938 32.25 31.921875 C 31.8125 31.539063 31.449219 31.007813 31.269531 30.535156 C 31.015625 29.941406 30.972656 29.472656 30.972656 28.808594 C 30.976563 27.496094 31.492188 25.707031 31.957031 23.425781 L 31.984375 23.285156 C 32.03125 23.054688 32.054688 22.808594 32.058594 22.5625 C 32.089844 20.339844 30.316406 18.515625 28.09375 18.484375 C 25.871094 18.453125 24.046875 20.226563 24.015625 22.449219 C 23.988281 24.3125 23.570313 26.679688 24.019531 29.570313 C 24.242188 30.984375 24.820313 32.566406 25.648438 33.773438 C 26.527344 35.105469 28 36 28.953125 36.914063 C 29.023438 36.980469 28.953125 36.914063 29.277344 37.078125 Z "/>
<path style=" fill:#673AB7;" d="M 33 11 C 33 15.972656 28.972656 28 24 28 C 19.027344 28 15 15.972656 15 11 C 15 6.027344 19.027344 2 24 2 C 28.972656 2 33 6.027344 33 11 Z "/>
<path style=" fill:#673AB7;" d="M 24.394531 25.5625 C 24.324219 24.480469 24.265625 23.492188 24.222656 22.460938 C 24.214844 22.289063 24.195313 22.09375 24.164063 21.921875 C 23.769531 19.738281 21.6875 18.289063 19.507813 18.679688 C 17.324219 19.070313 15.875 21.15625 16.265625 23.335938 L 16.28125 23.414063 C 16.65625 25.515625 17.285156 27.867188 17.328125 28.949219 L 17.332031 29.207031 L 17.332031 29.214844 C 17.34375 29.152344 17.3125 29.359375 17.351563 29.082031 L 17.351563 29.105469 L 17.347656 29.15625 L 17.34375 29.257813 L 17.328125 29.453125 C 17.296875 29.710938 17.367188 29.523438 17.332031 29.722656 C 17.308594 29.953125 17.257813 30.203125 17.152344 30.453125 C 16.949219 30.957031 16.570313 31.492188 16.070313 31.9375 C 15.8125 32.160156 15.574219 32.363281 15.246094 32.515625 C 15.175781 32.578125 14.84375 32.703125 14.550781 32.757813 C 13.925781 32.882813 13.121094 32.855469 12.335938 32.703125 L 12.042969 32.640625 L 11.902344 32.605469 L 11.828125 32.589844 L 11.8125 32.585938 C 11.847656 32.597656 11.722656 32.550781 11.886719 32.613281 L 11.828125 32.59375 L 11.488281 32.484375 C 11.445313 32.46875 11.414063 32.472656 11.355469 32.449219 C 11.09375 32.347656 10.867188 32.21875 10.648438 32.039063 C 10.214844 31.683594 9.816406 31.054688 9.535156 30.242188 C 8.964844 28.777344 9.101563 26.949219 9.648438 25.085938 L 9.746094 24.757813 L 9.863281 24.421875 C 9.933594 24.226563 10.03125 23.984375 10.128906 23.761719 L 10.777344 22.285156 C 11.207031 21.257813 11.644531 19.96875 11.382813 18.59375 C 11.144531 17.304688 10.414063 16.246094 9.71875 15.449219 C 9.382813 15.046875 9.070313 14.667969 8.828125 14.269531 C 8.59375 13.84375 8.292969 13.335938 8.144531 12.953125 C 7.835938 12.105469 7.964844 11.050781 8.199219 10.050781 C 8.429688 9.039063 8.789063 8.035156 9 7 C 8.636719 7.988281 8.136719 8.910156 7.738281 9.90625 C 7.355469 10.894531 6.992188 11.988281 7.214844 13.203125 C 7.363281 13.835938 7.550781 14.265625 7.742188 14.800781 C 7.964844 15.347656 8.253906 15.835938 8.523438 16.289063 C 9.074219 17.171875 9.414063 18.011719 9.429688 18.828125 C 9.445313 19.570313 9.082031 20.351563 8.570313 21.171875 L 7.722656 22.476563 C 7.570313 22.714844 7.429688 22.945313 7.273438 23.226563 L 7.066406 23.609375 L 6.871094 24.011719 C 6.382813 25.042969 5.964844 26.148438 5.71875 27.359375 C 5.59375 27.964844 5.515625 28.59375 5.5 29.246094 C 5.496094 29.5625 5.503906 29.898438 5.539063 30.28125 L 5.578125 30.6875 L 5.660156 31.199219 C 5.785156 31.894531 5.996094 32.640625 6.320313 33.382813 C 6.28125 33.296875 6.242188 33.210938 6.207031 33.125 C 11.871094 40.226563 19.140625 35 19.140625 35 C 19.140625 35 19.222656 36.046875 18.824219 37.125 C 18.992188 37.039063 19.167969 36.964844 19.328125 36.871094 C 20.582031 36.15625 21.730469 35.183594 22.652344 33.90625 C 23.113281 33.273438 23.503906 32.554688 23.800781 31.785156 C 23.9375 31.488281 24.113281 30.785156 24.179688 30.527344 L 24.230469 30.335938 L 24.253906 30.238281 L 24.265625 30.191406 L 24.273438 30.167969 L 24.296875 29.996094 L 24.375 29.46875 C 24.46875 28.753906 24.492188 27.996094 24.476563 27.34375 C 24.464844 26.683594 24.425781 26.109375 24.394531 25.5625 Z "/>
<path style=" fill:#673AB7;" d="M 30.394531 29.007813 C 30.300781 29.222656 30.164063 29.570313 30.128906 29.628906 C 30.066406 29.722656 29.996094 29.894531 29.933594 30.085938 C 29.800781 30.449219 29.6875 30.847656 29.59375 31.269531 C 29.40625 32.105469 29.277344 33.011719 29.21875 33.9375 C 29.15625 34.859375 29.152344 35.804688 29.214844 36.726563 L 29.226563 36.898438 L 29.230469 36.917969 L 29.230469 36.925781 C 29.234375 36.941406 29.199219 36.816406 29.214844 36.871094 L 29.214844 36.882813 L 29.222656 36.933594 L 29.234375 37.03125 L 29.28125 37.414063 C 29.304688 37.585938 29.308594 37.753906 29.355469 37.960938 C 29.429688 38.359375 29.53125 38.757813 29.679688 39.136719 C 30.234375 40.675781 31.453125 42.0625 33.148438 42.949219 C 34.835938 43.847656 36.902344 44.253906 39 44.171875 C 37.03125 44.898438 34.8125 45.230469 32.535156 44.855469 C 30.273438 44.496094 27.929688 43.285156 26.296875 41.269531 C 25.882813 40.777344 25.519531 40.242188 25.195313 39.679688 C 25.035156 39.410156 24.878906 39.089844 24.726563 38.769531 L 24.554688 38.40625 L 24.511719 38.316406 L 24.492188 38.273438 L 24.488281 38.261719 L 24.464844 38.1875 L 24.453125 38.164063 L 24.371094 37.957031 C 23.921875 36.867188 23.558594 35.761719 23.257813 34.621094 C 22.960938 33.480469 22.730469 32.308594 22.597656 31.070313 C 22.53125 30.449219 22.492188 29.8125 22.492188 29.148438 C 22.492188 28.824219 22.496094 28.480469 22.539063 28.066406 L 22.609375 27.164063 L 22.613281 27.101563 C 22.789063 24.867188 24.746094 23.199219 26.980469 23.378906 C 29.214844 23.554688 30.882813 25.507813 30.703125 27.742188 C 30.667969 28.183594 30.554688 28.617188 30.394531 29.007813 Z "/>
<path style=" fill:#673AB7;" d="M 25.476563 27.160156 L 25.550781 28.0625 C 25.589844 28.476563 25.59375 28.820313 25.59375 29.144531 C 25.59375 29.808594 25.554688 30.445313 25.488281 31.066406 C 25.355469 32.304688 25.128906 33.476563 24.828125 34.617188 C 24.527344 35.757813 24.164063 36.863281 23.714844 37.953125 L 23.632813 38.160156 L 23.621094 38.183594 L 23.601563 38.257813 L 23.59375 38.269531 L 23.574219 38.3125 L 23.53125 38.402344 L 23.359375 38.765625 C 23.207031 39.085938 23.050781 39.410156 22.890625 39.675781 C 22.570313 40.238281 22.207031 40.773438 21.792969 41.269531 C 20.15625 43.28125 17.8125 44.492188 15.554688 44.851563 C 13.273438 45.230469 11.054688 44.898438 9.085938 44.167969 C 11.183594 44.25 13.253906 43.84375 14.9375 42.949219 C 16.632813 42.058594 17.855469 40.675781 18.40625 39.136719 C 18.554688 38.753906 18.65625 38.359375 18.730469 37.960938 C 18.777344 37.75 18.785156 37.582031 18.804688 37.410156 L 18.855469 37.027344 L 18.867188 36.929688 L 18.871094 36.878906 L 18.875 36.867188 C 18.890625 36.8125 18.855469 36.9375 18.859375 36.921875 L 18.859375 36.894531 L 18.871094 36.722656 C 18.933594 35.800781 18.929688 34.855469 18.867188 33.933594 C 18.808594 33.007813 18.679688 32.101563 18.492188 31.265625 C 18.398438 30.84375 18.285156 30.445313 18.152344 30.082031 C 18.089844 29.890625 18.019531 29.71875 17.960938 29.625 C 17.917969 29.566406 17.785156 29.21875 17.695313 29.003906 C 16.816406 26.941406 17.777344 24.558594 19.839844 23.683594 C 21.902344 22.804688 24.285156 23.765625 25.160156 25.828125 C 25.335938 26.238281 25.4375 26.65625 25.472656 27.078125 Z "/>
<path style=" fill:#673AB7;" d="M 33 18.5 C 33 22 26.382813 28 25 28 L 23 28 C 21.617188 28 15 22 15 18.5 C 15 17.117188 16.117188 16 17.5 16 L 30.5 16 C 31.882813 16 33 17.117188 33 18.5 Z "/>
<path style=" fill:#7E57C2;" d="M 27 6 C 27 7.105469 26.105469 8 25 8 C 23.894531 8 23 7.105469 23 6 C 23 4.894531 23.894531 4 25 4 C 26.105469 4 27 4.894531 27 6 Z "/>
<path style=" fill:#7E57C2;" d="M 22 6 C 22 6.550781 21.550781 7 21 7 C 20.449219 7 20 6.550781 20 6 C 20 5.449219 20.449219 5 21 5 C 21.550781 5 22 5.449219 22 6 Z "/>
<path style=" fill:#7E57C2;" d="M 31 8.5 C 31 9.328125 30.328125 10 29.5 10 C 28.671875 10 28 9.328125 28 8.5 C 28 7.671875 28.671875 7 29.5 7 C 30.328125 7 31 7.671875 31 8.5 Z "/>
<path style=" fill:#7E57C2;" d="M 31 12 C 31 12.550781 30.550781 13 30 13 C 29.449219 13 29 12.550781 29 12 C 29 11.449219 29.449219 11 30 11 C 30.550781 11 31 11.449219 31 12 Z "/>
<path style=" fill:#B39DDB;" d="M 24 10 C 24 10.550781 23.550781 11 23 11 C 22.449219 11 22 10.550781 22 10 C 22 9.449219 22.449219 9 23 9 C 23.550781 9 24 9.449219 24 10 Z "/>
<path style=" fill:#B39DDB;" d="M 19 8.5 C 19 8.777344 18.777344 9 18.5 9 C 18.222656 9 18 8.777344 18 8.5 C 18 8.222656 18.222656 8 18.5 8 C 18.777344 8 19 8.222656 19 8.5 Z "/>
<path style=" fill:#B39DDB;" d="M 27 10.5 C 27 10.777344 26.777344 11 26.5 11 C 26.222656 11 26 10.777344 26 10.5 C 26 10.222656 26.222656 10 26.5 10 C 26.777344 10 27 10.222656 27 10.5 Z "/>
<path style="fill:#FFEB3B;stroke-width:2;stroke-linecap:round;stroke-linejoin:miter;stroke:#311B92;stroke-opacity:1;stroke-miterlimit:4;" d="M 21.039063 20.203125 C 22.042969 19.203125 20.226563 19.390625 19.222656 18.390625 C 18.222656 17.386719 18.410156 15.570313 17.410156 16.574219 "/>
<path style="fill:#FFEB3B;stroke-width:2;stroke-linecap:round;stroke-linejoin:miter;stroke:#311B92;stroke-opacity:1;stroke-miterlimit:4;" d="M 26.515625 20.203125 C 25.511719 19.203125 27.324219 19.390625 28.328125 18.390625 C 29.332031 17.386719 29.140625 15.570313 30.144531 16.574219 "/>
<path style=" fill:#311B92;" d="M 24 31 C 24 31 22.199219 43.765625 15.210938 44.894531 C 15.324219 44.882813 15.4375 44.871094 15.550781 44.851563 C 17.8125 44.492188 20.15625 43.28125 21.789063 41.269531 C 22.203125 40.773438 22.566406 40.238281 22.890625 39.675781 C 23.050781 39.410156 23.207031 39.085938 23.355469 38.765625 L 23.53125 38.402344 L 23.570313 38.3125 L 23.59375 38.269531 L 23.597656 38.257813 L 23.621094 38.183594 L 23.628906 38.160156 L 23.714844 37.953125 C 23.835938 37.664063 23.933594 37.367188 24.039063 37.074219 C 24.148438 37.367188 24.246094 37.664063 24.367188 37.953125 L 24.453125 38.160156 L 24.460938 38.183594 L 24.484375 38.257813 L 24.488281 38.269531 L 24.511719 38.3125 L 24.550781 38.402344 L 24.726563 38.765625 C 24.875 39.085938 25.03125 39.410156 25.191406 39.675781 C 25.515625 40.238281 25.878906 40.773438 26.292969 41.269531 C 27.90625 43.257813 30.214844 44.460938 32.449219 44.835938 C 25.738281 43.421875 24 31 24 31 Z "/>
<path style=" fill:#FFEB3B;" d="M 20.382813 20.925781 C 21.386719 19.921875 19.570313 20.109375 18.566406 19.109375 C 17.566406 18.105469 17.753906 16.289063 16.753906 17.292969 C 15.75 18.296875 15.75 19.921875 16.753906 20.925781 C 17.757813 21.929688 19.382813 21.925781 20.382813 20.925781 Z "/>
<path style=" fill:#FFEB3B;" d="M 27.085938 20.914063 C 26.027344 19.855469 27.941406 20.058594 29 19 C 30.058594 17.941406 29.855469 16.027344 30.914063 17.085938 C 31.972656 18.144531 31.972656 19.855469 30.914063 20.914063 C 29.855469 21.972656 28.144531 21.972656 27.085938 20.914063 Z "/>
<path style=" fill:#263238;" d="M 28.1875 19.554688 C 28.367188 19.816406 28.65625 20 29 20 C 29.554688 20 30 19.550781 30 19 C 30 18.65625 29.816406 18.371094 29.554688 18.1875 C 29.414063 18.476563 29.238281 18.761719 29 19 C 28.757813 19.238281 28.472656 19.414063 28.1875 19.554688 Z "/>
<path style=" fill:#263238;" d="M 19.382813 19.65625 C 19.097656 19.519531 18.808594 19.347656 18.566406 19.109375 C 18.324219 18.867188 18.15625 18.578125 18.019531 18.296875 C 17.753906 18.476563 17.566406 18.765625 17.566406 19.109375 C 17.566406 19.660156 18.015625 20.109375 18.566406 20.109375 C 18.910156 20.109375 19.203125 19.921875 19.382813 19.65625 Z "/>
<path style=" fill:#FF80AB;" d="M 29.210938 36.867188 C 29.210938 36.867188 29.214844 36.871094 29.214844 36.875 C 29.210938 36.859375 29.207031 36.855469 29.210938 36.867188 Z "/>
<path style=" fill:#FF80AB;" d="M 29.179688 35.121094 C 29.171875 35.660156 29.179688 36.195313 29.214844 36.726563 L 29.226563 36.898438 L 29.226563 36.917969 C 29.246094 36.972656 29.257813 37.023438 29.28125 37.078125 C 37.335938 40.960938 41.6875 33.980469 41.910156 33.082031 C 36.75 39.703125 30.316406 35.882813 29.179688 35.121094 Z "/>
<path style=" fill:#FF80AB;" d="M 18.8125 37.132813 C 18.816406 37.128906 18.820313 37.128906 18.824219 37.125 C 18.835938 37.101563 18.839844 37.074219 18.851563 37.050781 L 18.851563 37.027344 L 18.863281 36.929688 L 18.871094 36.882813 L 18.871094 36.867188 C 18.886719 36.8125 18.851563 36.9375 18.855469 36.925781 L 18.855469 36.898438 L 18.867188 36.722656 C 18.902344 36.203125 18.910156 35.679688 18.90625 35.152344 C 17.636719 35.957031 11.28125 39.484375 6.203125 33.125 C 9.082031 39.457031 16.1875 38.519531 18.8125 37.132813 Z "/>
</g>
</svg>