<svg xmlns="http://www.w3.org/2000/svg" viewBox="0 0 31 31"><path d="M1 1h7v7h-7zM9 1h4v1h-4zM23 1h7v7h-7zM2 2v5h5v-5zM13 2h1v1h1v1h-1v1h-1v1h-1v-3h1zM17 2h5v3h-1v-2h-1v2h-2v1h-1v-1h-1v1h1v1h-1v2h1v1h-3v1h-1v-5h1v-1h1v-1h1v-1h1zM24 2v5h5v-5zM3 3h3v3h-3zM10 3h1v1h-1zM25 3h3v3h-3zM9 4h1v1h1v1h-1v2h1v1h-1v1h-3v-1h2zM11 6h1v2h-1zM18 6h4v3h-1v-2h-1v1h-1v-1h-1zM14 7v2h1v-2zM17 7h1v1h-1zM18 8h1v2h1v1h-2zM1 9h1v1h3v-1h1v1h1v1h-3v1h-1v-1h-1v4h-1zM11 9h1v2h-1zM20 9h1v1h-1zM22 9h5v2h-2v-1h-1v1h1v1h-2v-1h-1zM29 9h1v3h-1zM7 11h1v1h-1zM9 11h2v1h-2zM14 11h4v1h1v2h-1v2h1v6h-1v1h-1v3h-2v1h-1v-2h1v-1h1v-1h-2v-1h-1v-1h1v-2h3v1h-2v2h2v-2h1v-1h-1v-3h-1v-1h1v-1h-1v-1h1v-1h-2v2h1v1h-5v-1h-1v1h1v1h-1v1h-1v-3h-2v-1h5v1h1v-1h1zM21 11h1v1h-1zM27 11h1v1h-1zM4 12h3v1h-1v1h-1v-1h-1zM12 12h1v1h-1zM22 12h1v2h-1zM25 12h1v3h1v-1h1v2h-1v1h-1v1h1v-1h1v1h1v1h-2v4h-1v1h1v1h-1v2h-2v-1h-3v1h-1v-2h-2v-1h3v-2h-1v-1h4v-1h-2v-3h1v1h2v-1h-1v-2h-1v-1h2zM28 12h1v1h-1zM20 13h1v1h-1zM6 14h1v1h1v1h-2zM21 14h1v1h-1zM29 14h1v2h-1zM3 15h2v1h-2zM19 15h1v1h-1zM1 16h1v3h-1zM5 16h1v1h-1zM11 16h1v1h-1zM13 16h1v1h-1zM15 16h1v2h-2v-1h1zM7 17h1v1h-1zM10 17h1v1h-1zM12 17h1v1h1v1h-2zM4 18h1v1h1v1h-2zM6 18h1v1h-1zM8 18h1v1h-1zM20 18h1v1h-1zM7 19h1v1h-1zM10 19h2v3h-1v2h-2v-2h1v-1h-1v-1h1zM29 19h1v2h-1v1h-1v-2h1zM3 20h1v1h-1zM6 20h1v1h2v1h-3zM25 20v1h1v-1zM1 21h2v1h-2zM12 22h1v1h-1zM22 22v3h3v-3zM1 23h7v7h-7zM23 23h1v1h-1zM29 23h1v1h-1zM2 24v5h5v-5zM12 24h1v1h-1zM28 24h1v1h-1zM3 25h3v3h-3zM9 25h1v1h-1zM27 25h1v2h1v-1h1v3h-1v1h-1v-2h-1v1h-1v-2h1zM17 26h1v1h-1zM10 27h2v1h-1v1h-1zM15 27h2v1h-1v1h1v1h-2v-1h-1v1h-3v-1h1v-1h3zM18 27h2v2h-1v1h-1v-1h-1v-1h1zM21 27h1v1h3v1h1v1h-2v-1h-1v1h-2zM9 29h1v1h-1z"/></svg>