<svg xmlns="http://www.w3.org/2000/svg" viewBox="0 0 31 31"><path d="M1 1h7v7h-7zM9 1h2v1h-1v1h1v1h1v-3h1v4h-3v-1h-1zM16 1h2v1h1v1h-1v2h1v1h-1v3h2v1h-2v2h-2v-1h1v-2h-1v-1h1v-1h-1v-1h-1v-1h2v-1h-1v-1h1v-1h-1zM19 1h1v1h-1zM23 1h7v7h-7zM2 2v5h5v-5zM20 2h1v2h-1zM24 2v5h5v-5zM3 3h3v3h-3zM25 3h3v3h-3zM21 4h1v1h-1zM9 5h1v1h-1zM20 5h1v1h-1zM12 6h1v1h-1zM21 6h1v3h-2v-1h1zM9 7h1v1h-1zM11 7h1v1h1v3h-1v-1h-1v-1h-1v-1h1zM13 7h1v1h-1zM15 7h1v1h-1zM19 7h1v1h-1zM14 8h1v6h1v1h-1v1h-1v2h1v-1h1v-2h1v2h1v1h-2v1h-2v1h-2v1h-2v-1h1v-1h1v-1h-1v1h-2v-2h2v-1h-1v-1h1v-1h1v-1h1v2h-1v2h1v-2h1v-2h-1v-1h1zM1 9h1v1h-1zM4 9h6v1h1v2h-1v1h-1v1h-3v-1h-1v-1h1v-1h2v-1h-3v1h-1zM22 9h1v4h-1v-1h-1v-1h1zM25 9h1v3h-1zM27 9h3v2h-2v-1h-1zM20 10h1v1h-1zM2 11h2v1h-2zM1 12h1v1h-1zM7 12v1h1v-1zM18 12h3v1h-1v1h-1v-1h-1zM26 12h1v2h-1v1h-1v1h-1v1h-2v-1h1v-1h1v-1h-1v-1h3zM3 13h1v1h-1zM10 13h1v1h-1zM17 13h1v2h-1zM21 13h1v1h-1zM28 13h2v3h-2v-1h-1v-1h1zM1 14h2v1h1v1h2v-1h2v1h-1v1h1v1h-2v1h3v3h-2v-1h1v-1h-5v1h2v1h-4v-4h1v-1h1v-1h-2zM4 14h2v1h-2zM20 14h1v3h-1zM18 15h1v1h-1zM26 15h1v1h1v1h1v1h1v2h-1v-1h-1v2h-1v-1h-4v-1h2v-1h1v1h1v-2h-2v-1h1zM4 17v1h-1v1h1v-1h1v-1zM19 17h1v1h-1zM18 18h1v1h1v-1h3v1h-2v2h1v-1h1v1h3v2h1v-1h1v2h-1v3h-1v-1h-1v1h-1v-1h-1v1h1v2h1v1h-2v-2h-1v-1h-1v-1h-1v-2h-1v-1h1v-3h-4v-1h2zM15 20h1v3h2v1h1v2h1v1h-2v2h-2v-1h-1v-1h2v-1h-4v-1h2v-3h-1v-1h1zM12 21h1v1h-1zM17 21h1v1h-1zM29 21h1v2h-1zM9 22h1v1h2v1h1v1h-2v-1h-1v3h-1zM22 22v3h3v-3zM1 23h7v7h-7zM13 23h1v1h-1zM23 23h1v1h-1zM2 24v5h5v-5zM16 24v1h1v-1zM3 25h3v3h-3zM28 25h2v4h-1v-1h-1v-1h1v-1h-1zM11 26h1v1h1v1h-2zM25 27h1v1h2v2h-1v-1h-2zM10 28h1v2h-2v-1h1zM14 28h1v1h1v1h-3v-1h1zM19 28h2v1h-2zM18 29h1v1h-1zM21 29h1v1h-1z"/></svg>