<svg xmlns="http://www.w3.org/2000/svg" viewBox="0 0 43 43"><path d="M1 1h7v7h-7zM11 1h3v1h-1v1h1v-1h2v-1h1v1h1v-1h1v2h1v1h-2v1h2v1h-1v1h-1v-1h-1v1h-1v-1h-1v-1h1v-2h-1v2h-1v1h-1v-1h-1v-3h-1zM20 1h4v1h-1v1h2v1h-2v1h1v3h-1v-2h-2v-1h1v-1h-1v-1h1v-1h-2zM29 1h1v2h-2v-1h1zM32 1h2v1h-2zM35 1h7v7h-7zM2 2v5h5v-5zM10 2h1v2h-1v5h-1v-6h1zM25 2h1v1h-1zM36 2v5h5v-5zM3 3h3v3h-3zM27 3h1v1h3v-1h2v1h-1v1h-4v1h1v1h-1v3h3v2h-1v-1h-1v1h-1v-1h-1v-1h-2v-1h-1v-1h1v-1h1v2h1zM37 3h3v3h-3zM25 4h1v1h-1zM11 5h1v1h-1zM33 5h1v3h-1zM14 6h1v1h-1zM11 7h1v1h-1zM13 7h1v1h1v1h-2v1h1v1h-1v1h-3v-1h-1v-1h3v-2h1zM15 7h1v1h-1zM17 7h1v3h2v-1h1v1h1v-1h-1v-2h1v1h1v1h1v1h-1v1h1v1h1v1h-1v2h-1v-1h-2v-2h1v-1h-2v1h-2v-1h-1v-1h-1v-1h1zM19 7h1v1h-1zM29 7h1v1h-1zM31 7h1v2h-1zM1 9h1v1h1v1h-2zM3 9h5v1h-2v1h3v1h1v2h-1v-1h-1v-1h-4v-2h-1zM33 9h1v1h-1zM35 9h5v1h1v1h-1v1h-1v-2h-1v2h-1v-1h-1v2h-1v-2h-1v-1h1zM15 10h1v2h-1zM24 10h1v1h-1zM32 10h1v1h-1zM33 11h1v2h-3v-1h2zM1 12h1v1h-1zM3 12h1v1h4v1h-2v1h2v-1h1v1h1v1h-4v1h-1v1h2v1h2v-1h-2v-1h3v-1h1v3h-1v3h-1v2h-2v-1h1v-1h-1v1h-1v1h1v1h1v1h-3v-1h-2v-2h1v1h1v-3h1v-2h-1v2h-1v-4h-2v-1h-1v-2h2zM13 12h2v1h-1v1h1v2h1v-2h1v-1h1v2h1v-1h1v2h-3v2h-1v-1h-1v1h-2v-1h-1v-1h2v-1h-1zM27 12h1v1h1v1h1v1h1v-1h4v1h-3v1h1v1h1v1h-1v1h-1v-1h-1v1h-1v-1h-1v-1h-1v-3h-3v-1h2zM38 12h1v1h-1zM37 13h1v2h-2v-1h1zM39 13h1v1h-1zM41 13h1v1h-1zM4 14v1h1v-1zM11 14h1v2h-1zM40 14h1v1h-1zM21 15h2v2h1v-2h3v1h-2v3h-1v1h-1v-2h-1v1h-1v-2h1v-1h-1zM38 15h2v1h-1v2h-1v1h-2v-3h2zM30 16v1h1v-1zM40 16h2v1h-2zM1 17h1v1h-1zM18 17h2v1h-2zM27 17h1v1h-1zM12 18h1v1h-1zM15 18h1v1h1v1h-1v1h-3v1h2v3h-2v-1h1v-1h-1v1h-1v-2h-1v-1h1v-1h3zM39 18h1v2h-1v1h-1v-2h1zM41 18h1v1h-1zM1 19h1v1h1v1h-2zM11 19h1v1h-1zM19 19h1v1h-1zM28 19h2v1h-1v1h2v-2h1v1h1v1h-1v1h-2v1h-1v-1h-1zM33 19h1v1h-1zM7 20v1h1v-1zM17 20h1v1h-1zM34 20h2v1h-1v1h-2v-1h1zM41 20h1v3h-1zM3 21h1v1h-1zM16 21h1v1h2v1h-2v1h-1zM19 21h2v1h-2zM22 21h4v1h-1v1h-1v-1h-1v1h-2v-1h1zM39 21h1v3h-1v-1h-2v1h-1v1h-1v-1h-1v-1h1v-1h4zM1 22h1v1h-1zM10 22h1v1h-1zM32 22h1v1h-1zM19 23h1v2h-1zM23 23h1v2h1v1h2v1h-1v2h-1v-2h-1v-1h-1v-1h-2v-1h2zM25 23h4v1h-4zM31 23h1v1h-1zM1 24h1v1h-1zM9 24h1v1h-1zM17 24h1v2h-1zM29 24h1v1h2v-1h2v1h1v1h-1v1h-2v-1h-5v-1h2zM37 24h2v1h1v1h-2v-1h-1zM41 24h1v3h-2v-1h1zM2 25h1v1h-1zM10 25h3v3h-1v-1h-1v-1h-1zM36 25h1v1h-1zM8 26h1v1h-1zM14 26h2v2h-1v2h-1zM19 26h4v3h1v2h-3v-1h1v-2h-1v-1h-1v1h-3v-1h2zM35 26h1v2h1v-2h1v1h2v1h-1v1h-2v1h-1v-1h-2v-1h1zM1 27h3v1h1v2h-2v1h-1v3h-1v-4h1v-1h-1zM5 27h1v1h-1zM7 27h1v1h-1zM28 27h1v1h-1zM30 27h1v1h-1zM6 28h1v1h-1zM10 28h2v1h1v2h-2v-1h-2v-1h1zM16 28h1v2h-1zM31 28h1v1h-1zM7 29h1v1h-1zM18 29h2v1h-2zM26 29h3v1h-3zM30 29h1v1h-1zM33 29h1v3h-1v-1h-1v1h-1v-2h2zM40 29h2v2h-2zM5 30h1v1h-1zM8 30h1v1h-1zM17 30h1v2h-2v-1h1zM25 30h1v1h-1zM29 30h1v3h1v2h-1v-1h-1v-1h-2v-1h1v-1h1zM37 30h2v1h1v1h-1v1h-1v2h1v2h1v1h-1v3h-1v1h-3v-1h2v-1h-2v-1h2v-1h-3v1h-2v1h-1v-1h-1v-1h3v-1h-2v-2h1v1h1v-1h-1v-1h1v-1h3v-1h1zM6 31h2v1h-1v1h2v1h-6v-2h3zM9 31h1v1h4v1h-1v2h-1v-2h-3zM20 31h1v1h2v1h1v1h1v1h-2v1h1v1h-1v1h1v1h-2v-1h-1v-1h-3v-1h-1v-1h1v-2h1v-1h1zM26 31h1v1h-1zM25 32h1v1h1v1h1v1h1v1h1v2h-3v-1h1v-1h-1v1h-1v1h-2v-1h1v-1h1v-2h-1zM32 32h1v1h-1zM40 32h1v1h1v2h-2v-1h-1v-1h1zM16 33h1v2h-1zM21 33v1h-2v2h2v-2h1v-1zM9 34h2v1h1v1h1v1h-1v1h-1v-2h-1v-1h-1zM34 34v3h3v-3zM1 35h7v7h-7zM14 35h2v1h1v1h1v1h3v1h-1v1h5v2h-4v-1h-2v-1h-1v-1h-2v1h1v1h-1v1h-1v-1h-1v1h-1v-2h2v-4h-1zM35 35h1v1h-1zM2 36v5h5v-5zM9 36h1v2h1v1h-1v1h-1zM40 36h1v1h-1zM3 37h3v3h-3zM13 37h1v1h-1zM41 37h1v1h-1zM26 38h1v1h-1zM11 39h2v1h-2zM27 39h2v1h-2zM29 40h1v1h-1zM33 40h2v1h-2zM40 40h1v1h-1zM9 41h1v1h-1zM26 41h2v1h-2zM30 41h1v1h-1zM32 41h1v1h-1z"/></svg>